<svg version="1.2" xmlns="http://www.w3.org/2000/svg" viewBox="0 0 350 350" width="350" height="350">
	<title>logo</title>
	<style>
		.s0 { fill: #0088f7 } 
	</style>
	<g id="Folder 1">
		<path id="Shape 3" fill-rule="evenodd" class="s0" d="m0 70c0-38.7 31.3-70 70-70h210c38.7 0 70 31.3 70 70v210c0 38.7-31.3 70-70 70h-210c-38.7 0-70-31.3-70-70zm220 28.5c0-6.4-5.2-11.6-11.6-11.6-6.5 0-11.7 5.2-11.7 11.6 0 6.5 5.2 11.7 11.7 11.7 6.4 0 11.6-5.2 11.6-11.7zm-11.6-25.4c0-6.4-5.3-11.6-11.7-11.6-6.4 0-11.6 5.2-11.6 11.6 0 6.5 5.2 11.7 11.6 11.7 6.4 0 11.7-5.2 11.7-11.7zm-43.5-20.1l-34.9 31.8c0 0 71.5 88.1 43.2 179.3-40.1-54.9-10.4-112.6-10.4-112.6 0 0-61.1 56.6-4.2 145 0 0 101.5-84.1 6.3-243.5z"/>
		<g id="Folder 2">
		</g>
	</g>
</svg>